<svg width="40" height="40" viewBox="0 0 40 40" fill="none" xmlns="http://www.w3.org/2000/svg">
<rect x="1.25" y="1.25" width="37.5" height="37.5" rx="18.75" fill="#FAFAFA" style="fill:#FAFAFA;fill:color(display-p3 0.9804 0.9804 0.9804);fill-opacity:1;"/>
<rect x="1.25" y="1.25" width="37.5" height="37.5" rx="18.75" stroke="#F2F2F2" style="stroke:#F2F2F2;stroke:color(display-p3 0.9490 0.9490 0.9490);stroke-opacity:1;" stroke-width="1.5"/>
<path fill-rule="evenodd" clip-rule="evenodd" d="M19.8097 14.1278C20.0843 14.4024 20.0843 14.8476 19.8097 15.1222L15.385 19.5469H26.8125C27.2008 19.5469 27.5156 19.8617 27.5156 20.25C27.5156 20.6383 27.2008 20.9531 26.8125 20.9531H15.385L19.8097 25.3778C20.0843 25.6524 20.0843 26.0976 19.8097 26.3722C19.5351 26.6468 19.0899 26.6468 18.8153 26.3722L13.1903 20.7472C12.9157 20.4726 12.9157 20.0274 13.1903 19.7528L18.8153 14.1278C19.0899 13.8532 19.5351 13.8532 19.8097 14.1278Z" fill="#1A1A1A" style="fill:#1A1A1A;fill:color(display-p3 0.1000 0.1000 0.1000);fill-opacity:1;"/>
</svg>
