<svg width="40" height="40" viewBox="0 0 40 40" fill="none" xmlns="http://www.w3.org/2000/svg">
<rect x="1.25" y="1.25" width="37.5" height="37.5" rx="18.75" fill="#FAFAFA" style="fill:#FAFAFA;fill:color(display-p3 0.9804 0.9804 0.9804);fill-opacity:1;"/>
<rect x="1.25" y="1.25" width="37.5" height="37.5" rx="18.75" stroke="#F2F2F2" style="stroke:#F2F2F2;stroke:color(display-p3 0.9490 0.9490 0.9490);stroke-opacity:1;" stroke-width="1.5"/>
<path fill-rule="evenodd" clip-rule="evenodd" d="M14.5581 14.5581C14.8021 14.314 15.1979 14.314 15.4419 14.5581L20 19.1161L24.5581 14.5581C24.8021 14.314 25.1979 14.314 25.4419 14.5581C25.686 14.8021 25.686 15.1979 25.4419 15.4419L20.8839 20L25.4419 24.5581C25.686 24.8021 25.686 25.1979 25.4419 25.4419C25.1979 25.686 24.8021 25.686 24.5581 25.4419L20 20.8839L15.4419 25.4419C15.1979 25.686 14.8021 25.686 14.5581 25.4419C14.314 25.1979 14.314 24.8021 14.5581 24.5581L19.1161 20L14.5581 15.4419C14.314 15.1979 14.314 14.8021 14.5581 14.5581Z" fill="#686767" style="fill:#686767;fill:color(display-p3 0.4076 0.4031 0.4031);fill-opacity:1;"/>
</svg>
