<svg width="32" height="32" viewBox="0 0 32 32" fill="none" xmlns="http://www.w3.org/2000/svg">
<rect width="31.9535" height="31.9535" rx="15.9767" fill="#FFF5F5" style="fill:#FFF5F5;fill:color(display-p3 1.0000 0.9592 0.9592);fill-opacity:1;"/>
<path d="M18.4067 23.6789H18.3092C14.9792 23.6789 13.3742 22.3664 13.0967 19.4264C13.0667 19.1189 13.2917 18.8414 13.6067 18.8114C13.9067 18.7814 14.1917 19.0139 14.2217 19.3214C14.4392 21.6764 15.5492 22.5539 18.3167 22.5539H18.4142C21.4667 22.5539 22.5467 21.4739 22.5467 18.4214V13.5314C22.5467 10.4789 21.4667 9.39893 18.4142 9.39893H18.3167C15.5342 9.39893 14.4242 10.2914 14.2217 12.6914C14.1842 12.9989 13.9217 13.2314 13.6067 13.2014C13.2917 13.1789 13.0667 12.9014 13.0892 12.5939C13.3442 9.60893 14.9567 8.27393 18.3092 8.27393H18.4067C22.0892 8.27393 23.6642 9.84893 23.6642 13.5314V18.4214C23.6642 22.1039 22.0892 23.6789 18.4067 23.6789Z" fill="#BC1823" style="fill:#BC1823;fill:color(display-p3 0.7373 0.0941 0.1373);fill-opacity:1;"/>
<path d="M18.2267 16.5391H9.69174C9.38424 16.5391 9.12924 16.2841 9.12924 15.9766C9.12924 15.6691 9.38424 15.4141 9.69174 15.4141H18.2267C18.5342 15.4141 18.7892 15.6691 18.7892 15.9766C18.7892 16.2841 18.5342 16.5391 18.2267 16.5391Z" fill="#BC1823" style="fill:#BC1823;fill:color(display-p3 0.7373 0.0941 0.1373);fill-opacity:1;"/>
<path d="M11.3642 19.0519C11.2217 19.0519 11.0792 18.9994 10.9667 18.8869L8.45423 16.3744C8.23673 16.1569 8.23673 15.7969 8.45423 15.5794L10.9667 13.0669C11.1842 12.8494 11.5442 12.8494 11.7617 13.0669C11.9792 13.2844 11.9792 13.6444 11.7617 13.8619L9.64673 15.9769L11.7617 18.0919C11.9792 18.3094 11.9792 18.6694 11.7617 18.8869C11.6567 18.9994 11.5067 19.0519 11.3642 19.0519Z" fill="#BC1823" style="fill:#BC1823;fill:color(display-p3 0.7373 0.0941 0.1373);fill-opacity:1;"/>
</svg>
