<svg width="32" height="32" viewBox="0 0 32 32" fill="none" xmlns="http://www.w3.org/2000/svg">
<rect width="31.9535" height="31.9535" rx="15.9767" fill="#FFF5F5" style="fill:#FFF5F5;fill:color(display-p3 1.0000 0.9592 0.9592);fill-opacity:1;"/>
<path d="M15.9767 23.2143C15.7442 23.2143 15.5192 23.1843 15.3317 23.1168C12.4667 22.1343 7.91425 18.6468 7.91425 13.4943C7.91425 10.8693 10.0367 8.73926 12.6467 8.73926C13.9142 8.73926 15.0992 9.23426 15.9767 10.1193C16.8542 9.23426 18.0392 8.73926 19.3067 8.73926C21.9167 8.73926 24.0392 10.8768 24.0392 13.4943C24.0392 18.6543 19.4867 22.1343 16.6217 23.1168C16.4342 23.1843 16.2092 23.2143 15.9767 23.2143ZM12.6467 9.86426C10.6592 9.86426 9.03925 11.4918 9.03925 13.4943C9.03925 18.6168 13.9667 21.4668 15.6992 22.0593C15.8342 22.1043 16.1267 22.1043 16.2617 22.0593C17.9867 21.4668 22.9217 18.6243 22.9217 13.4943C22.9217 11.4918 21.3017 9.86426 19.3142 9.86426C18.1742 9.86426 17.1167 10.3968 16.4342 11.3193C16.2242 11.6043 15.7442 11.6043 15.5342 11.3193C14.8367 10.3893 13.7867 9.86426 12.6467 9.86426Z" fill="#BC1823" style="fill:#BC1823;fill:color(display-p3 0.7373 0.0941 0.1373);fill-opacity:1;"/>
</svg>
