<svg width="32" height="32" viewBox="0 0 32 32" fill="none" xmlns="http://www.w3.org/2000/svg">
<rect width="31.9535" height="31.9535" rx="15.9767" fill="#FFF5F5" style="fill:#FFF5F5;fill:color(display-p3 1.0000 0.9592 0.9592);fill-opacity:1;"/>
<path d="M18.2267 24.0391H13.7267C9.65425 24.0391 7.91425 22.2991 7.91425 18.2266V13.7266C7.91425 9.65406 9.65425 7.91406 13.7267 7.91406H17.4767C17.7842 7.91406 18.0392 8.16906 18.0392 8.47656C18.0392 8.78406 17.7842 9.03906 17.4767 9.03906H13.7267C10.2692 9.03906 9.03925 10.2691 9.03925 13.7266V18.2266C9.03925 21.6841 10.2692 22.9141 13.7267 22.9141H18.2267C21.6842 22.9141 22.9142 21.6841 22.9142 18.2266V14.4766C22.9142 14.1691 23.1692 13.9141 23.4767 13.9141C23.7842 13.9141 24.0392 14.1691 24.0392 14.4766V18.2266C24.0392 22.2991 22.2992 24.0391 18.2267 24.0391Z" fill="#BC1823" style="fill:#BC1823;fill:color(display-p3 0.7373 0.0941 0.1373);fill-opacity:1;"/>
<path d="M23.4768 15.0389H20.4768C17.9118 15.0389 16.9143 14.0414 16.9143 11.4764V8.47643C16.9143 8.25143 17.0493 8.04143 17.2593 7.95893C17.4693 7.86893 17.7093 7.92143 17.8743 8.07893L23.8743 14.0789C24.0318 14.2364 24.0843 14.4839 23.9943 14.6939C23.9043 14.9039 23.7018 15.0389 23.4768 15.0389ZM18.0393 9.83393V11.4764C18.0393 13.4114 18.5418 13.9139 20.4768 13.9139H22.1193L18.0393 9.83393Z" fill="#BC1823" style="fill:#BC1823;fill:color(display-p3 0.7373 0.0941 0.1373);fill-opacity:1;"/>
<path d="M16.7267 17.2891H12.2267C11.9192 17.2891 11.6642 17.0341 11.6642 16.7266C11.6642 16.4191 11.9192 16.1641 12.2267 16.1641H16.7267C17.0342 16.1641 17.2892 16.4191 17.2892 16.7266C17.2892 17.0341 17.0342 17.2891 16.7267 17.2891Z" fill="#BC1823" style="fill:#BC1823;fill:color(display-p3 0.7373 0.0941 0.1373);fill-opacity:1;"/>
<path d="M15.2267 20.2891H12.2267C11.9192 20.2891 11.6642 20.0341 11.6642 19.7266C11.6642 19.4191 11.9192 19.1641 12.2267 19.1641H15.2267C15.5342 19.1641 15.7892 19.4191 15.7892 19.7266C15.7892 20.0341 15.5342 20.2891 15.2267 20.2891Z" fill="#BC1823" style="fill:#BC1823;fill:color(display-p3 0.7373 0.0941 0.1373);fill-opacity:1;"/>
</svg>
