<svg width="32" height="32" viewBox="0 0 32 32" fill="none" xmlns="http://www.w3.org/2000/svg">
<rect width="31.9535" height="31.9535" rx="15.9767" fill="#FFF5F5" style="fill:#FFF5F5;fill:color(display-p3 1.0000 0.9592 0.9592);fill-opacity:1;"/>
<path d="M15.9767 16.5391C13.5992 16.5391 11.6642 14.6041 11.6642 12.2266C11.6642 9.84906 13.5992 7.91406 15.9767 7.91406C18.3542 7.91406 20.2892 9.84906 20.2892 12.2266C20.2892 14.6041 18.3542 16.5391 15.9767 16.5391ZM15.9767 9.03906C14.2217 9.03906 12.7892 10.4716 12.7892 12.2266C12.7892 13.9816 14.2217 15.4141 15.9767 15.4141C17.7317 15.4141 19.1642 13.9816 19.1642 12.2266C19.1642 10.4716 17.7317 9.03906 15.9767 9.03906Z" fill="#BC1823" style="fill:#BC1823;fill:color(display-p3 0.7373 0.0941 0.1373);fill-opacity:1;"/>
<path d="M22.4194 24.0391C22.1119 24.0391 21.8569 23.7841 21.8569 23.4766C21.8569 20.8891 19.2169 18.7891 15.9769 18.7891C12.7369 18.7891 10.0969 20.8891 10.0969 23.4766C10.0969 23.7841 9.84186 24.0391 9.53436 24.0391C9.22686 24.0391 8.97186 23.7841 8.97186 23.4766C8.97186 20.2741 12.1144 17.6641 15.9769 17.6641C19.8394 17.6641 22.9819 20.2741 22.9819 23.4766C22.9819 23.7841 22.7269 24.0391 22.4194 24.0391Z" fill="#BC1823" style="fill:#BC1823;fill:color(display-p3 0.7373 0.0941 0.1373);fill-opacity:1;"/>
</svg>
