<svg width="20" height="20" viewBox="0 0 20 20" fill="none" xmlns="http://www.w3.org/2000/svg">
<path d="M12.7167 18.5417H7.28332C3.19165 18.5417 1.44165 16.7917 1.44165 12.7V12.5917C1.44165 8.89167 2.89998 7.10833 6.16665 6.8C6.49998 6.775 6.81665 7.025 6.84998 7.36667C6.88332 7.70833 6.63332 8.01667 6.28332 8.05C3.66665 8.29167 2.69165 9.525 2.69165 12.6V12.7083C2.69165 16.1 3.89165 17.3 7.28332 17.3H12.7167C16.1083 17.3 17.3083 16.1 17.3083 12.7083V12.6C17.3083 9.50833 16.3166 8.275 13.65 8.05C13.3083 8.01667 13.05 7.71667 13.0833 7.375C13.1166 7.03333 13.4083 6.775 13.7583 6.80833C17.075 7.09167 18.5583 8.88333 18.5583 12.6083V12.7167C18.5583 16.7917 16.8083 18.5417 12.7167 18.5417Z" fill="#777777" style="fill:#777777;fill:color(display-p3 0.4667 0.4667 0.4667);fill-opacity:1;"/>
<path d="M10 13.025C9.65833 13.025 9.375 12.7417 9.375 12.4V1.66666C9.375 1.32499 9.65833 1.04166 10 1.04166C10.3417 1.04166 10.625 1.32499 10.625 1.66666V12.4C10.625 12.75 10.3417 13.025 10 13.025Z" fill="#777777" style="fill:#777777;fill:color(display-p3 0.4667 0.4667 0.4667);fill-opacity:1;"/>
<path d="M10 13.9583C9.8417 13.9583 9.68337 13.9 9.55837 13.775L6.7667 10.9833C6.52503 10.7417 6.52503 10.3417 6.7667 10.1C7.00837 9.85835 7.40837 9.85835 7.65003 10.1L10 12.45L12.35 10.1C12.5917 9.85835 12.9917 9.85835 13.2334 10.1C13.475 10.3417 13.475 10.7417 13.2334 10.9833L10.4417 13.775C10.3167 13.9 10.1584 13.9583 10 13.9583Z" fill="#777777" style="fill:#777777;fill:color(display-p3 0.4667 0.4667 0.4667);fill-opacity:1;"/>
</svg>
