<svg width="18" height="18" viewBox="0 0 18 18" fill="none" xmlns="http://www.w3.org/2000/svg">
<path d="M11.4301 16.7026H11.3326C8.00263 16.7026 6.39763 15.3901 6.12013 12.4501C6.09013 12.1426 6.31513 11.8651 6.63013 11.8351C6.93013 11.8051 7.21513 12.0376 7.24513 12.3451C7.46263 14.7001 8.57263 15.5776 11.3401 15.5776H11.4376C14.4901 15.5776 15.5701 14.4976 15.5701 11.4451V6.55511C15.5701 3.50261 14.4901 2.42261 11.4376 2.42261H11.3401C8.55763 2.42261 7.44763 3.31511 7.24513 5.71511C7.20763 6.02261 6.94513 6.25511 6.63013 6.22511C6.31513 6.20261 6.09013 5.92511 6.11263 5.61761C6.36763 2.63261 7.98013 1.29761 11.3326 1.29761H11.4301C15.1126 1.29761 16.6876 2.87261 16.6876 6.55511V11.4451C16.6876 15.1276 15.1126 16.7026 11.4301 16.7026Z" fill="#777777" style="fill:#777777;fill:color(display-p3 0.4667 0.4667 0.4667);fill-opacity:1;"/>
<path d="M11.2501 9.56226H2.71509C2.40759 9.56226 2.15259 9.30726 2.15259 8.99976C2.15259 8.69226 2.40759 8.43726 2.71509 8.43726H11.2501C11.5576 8.43726 11.8126 8.69226 11.8126 8.99976C11.8126 9.30726 11.5576 9.56226 11.2501 9.56226Z" fill="#777777" style="fill:#777777;fill:color(display-p3 0.4667 0.4667 0.4667);fill-opacity:1;"/>
<path d="M4.38733 12.0751C4.24483 12.0751 4.10233 12.0226 3.98983 11.9101L1.47733 9.39763C1.25983 9.18013 1.25983 8.82013 1.47733 8.60263L3.98983 6.09013C4.20733 5.87263 4.56733 5.87263 4.78483 6.09013C5.00233 6.30763 5.00233 6.66763 4.78483 6.88513L2.66983 9.00013L4.78483 11.1151C5.00233 11.3326 5.00233 11.6926 4.78483 11.9101C4.67983 12.0226 4.52983 12.0751 4.38733 12.0751Z" fill="#777777" style="fill:#777777;fill:color(display-p3 0.4667 0.4667 0.4667);fill-opacity:1;"/>
</svg>
