<svg width="24" height="22" viewBox="0 0 24 22" fill="none" xmlns="http://www.w3.org/2000/svg">
<path d="M0.924706 11.9349C0.986128 17.4075 5.89759 21.7986 11.8947 21.7425C17.8919 21.6865 22.7037 17.2046 22.6423 11.732C22.5809 6.25936 17.6694 1.86834 11.6723 1.92439C5.67516 1.98044 0.863284 6.46233 0.924706 11.9349Z" fill="#FFCC04" style="fill:#FFCC04;fill:color(display-p3 1.0000 0.8000 0.0157);fill-opacity:1;"/>
<g clip-path="url(#clip0_200_6005)">
<path d="M11.8001 8.50586C7.82027 8.50586 4.59398 10.0021 4.59398 11.8476C4.59398 13.6933 7.82027 15.1894 11.8001 15.1894C15.7798 15.1894 19.0061 13.6932 19.0061 11.8476C19.0061 10.002 15.7798 8.50586 11.8001 8.50586ZM11.8001 14.6619C8.13441 14.6619 5.16282 13.4019 5.16282 11.8476C5.16282 10.2934 8.13444 9.03343 11.8001 9.03343C15.4657 9.03343 18.4373 10.2934 18.4373 11.8476C18.4373 13.4019 15.4657 14.6619 11.8001 14.6619ZM10.8913 11.2614L10.8913 10.7337L12.9242 10.7337L12.9242 11.2614L12.1923 11.2614L12.1923 12.9616L11.6233 12.9616L11.6233 11.2614L10.8913 11.2614ZM15.3781 10.7337L15.3781 12.9616L14.8092 12.9616L13.7775 11.6354L13.7775 12.9616L13.2087 12.9616L13.2087 10.7337L13.7775 10.7337L14.8092 12.06L14.8092 10.7337L15.3781 10.7337ZM8.20509 12.9616L8.20509 10.7337L8.77394 10.7337L9.40593 11.6354L10.0379 10.7337L10.6065 10.7337L10.6065 12.9616L10.0379 12.9616L10.0379 11.7015L9.60646 12.3166L9.20539 12.3166L8.77394 11.7015L8.77394 12.9616L8.20509 12.9616Z" fill="black" style="fill:black;fill-opacity:1;"/>
</g>
<defs>
<clipPath id="clip0_200_6005">
<rect width="14.4119" height="6.68374" fill="white" style="fill:white;fill-opacity:1;" transform="translate(4.5937 8.50586)"/>
</clipPath>
</defs>
</svg>
