<svg width="40" height="40" viewBox="0 0 40 40" fill="none" xmlns="http://www.w3.org/2000/svg">
<rect width="40" height="40" rx="20" fill="#EBEBEB" style="fill:#EBEBEB;fill:color(display-p3 0.9216 0.9216 0.9216);fill-opacity:1;"/>
<path d="M29 27.2H11V25.4H11.9V19.1279C11.9 14.6387 15.527 11 20 11C24.473 11 28.1 14.6387 28.1 19.1279V25.4H29V27.2ZM13.7 25.4H26.3V19.1279C26.3 15.6332 23.4794 12.8 20 12.8C16.5206 12.8 13.7 15.6332 13.7 19.1279V25.4ZM17.75 28.1H22.25C22.25 28.6967 22.0129 29.269 21.591 29.691C21.169 30.1129 20.5967 30.35 20 30.35C19.4033 30.35 18.831 30.1129 18.409 29.691C17.9871 29.269 17.75 28.6967 17.75 28.1Z" fill="#686767" style="fill:#686767;fill:color(display-p3 0.4076 0.4031 0.4031);fill-opacity:1;"/>
</svg>
