<svg width="46" height="46" viewBox="0 0 46 46" fill="none" xmlns="http://www.w3.org/2000/svg">
<g clip-path="url(#clip0_98_1310)">
<rect width="46" height="46" rx="23" fill="#F2E8E8" style="fill:#F2E8E8;fill:color(display-p3 0.9477 0.9096 0.9096);fill-opacity:1;"/>
<path d="M23 27.502C27.8325 27.502 31.75 23.5844 31.75 18.752C31.75 13.9195 27.8325 10.002 23 10.002C18.1675 10.002 14.25 13.9195 14.25 18.752C14.25 23.5844 18.1675 27.502 23 27.502Z" fill="#FF3131" style="fill:#FF3131;fill:color(display-p3 1.0000 0.1922 0.1922);fill-opacity:1;"/>
<path d="M23 31.877C14.2325 31.877 7.0925 37.757 7.0925 45.002C7.0925 45.492 7.4775 45.877 7.9675 45.877H38.0325C38.5225 45.877 38.9075 45.492 38.9075 45.002C38.9075 37.757 31.7675 31.877 23 31.877Z" fill="#FF3131" style="fill:#FF3131;fill:color(display-p3 1.0000 0.1922 0.1922);fill-opacity:1;"/>
</g>
<defs>
<clipPath id="clip0_98_1310">
<rect width="46" height="46" rx="23" fill="white" style="fill:white;fill-opacity:1;"/>
</clipPath>
</defs>
</svg>
