<svg width="20" height="20" viewBox="0 0 20 20" fill="none" xmlns="http://www.w3.org/2000/svg">
<path d="M16.1832 9.79175H13.3333C12.9916 9.79175 12.7083 9.50841 12.7083 9.16675V3.34175C12.7083 2.72508 12.9499 2.15008 13.3832 1.71675C13.8166 1.28341 14.3916 1.04175 15.0083 1.04175H15.0166C16.0583 1.05008 17.0416 1.45841 17.7916 2.20008C18.5416 2.95841 18.9499 3.95841 18.9499 5.00008V7.01675C18.9582 8.67508 17.8416 9.79175 16.1832 9.79175ZM13.9583 8.54175H16.1832C17.1499 8.54175 17.7083 7.98341 17.7083 7.01675V5.00008C17.7083 4.28341 17.4249 3.60008 16.9166 3.08341C16.4082 2.58341 15.7333 2.30008 15.0166 2.29175C15.0166 2.29175 15.0166 2.29175 15.0083 2.29175C14.7333 2.29175 14.4666 2.40008 14.2666 2.60008C14.0666 2.80008 13.9583 3.05841 13.9583 3.34175V8.54175Z" fill="#777777" style="fill:#777777;fill:color(display-p3 0.4667 0.4667 0.4667);fill-opacity:1;"/>
<path d="M7.4998 19.4417C7.10813 19.4417 6.74147 19.2917 6.46647 19.0084L5.08311 17.6167C5.00811 17.5417 4.89148 17.5334 4.80815 17.6001L3.38313 18.6667C2.94146 19.0001 2.35811 19.0584 1.85811 18.8084C1.35811 18.5584 1.0498 18.0584 1.0498 17.5001V5.00008C1.0498 2.48341 2.49147 1.04175 5.00814 1.04175H15.0081C15.3498 1.04175 15.6331 1.32508 15.6331 1.66675C15.6331 2.00841 15.3498 2.29175 15.0081 2.29175C14.4331 2.29175 13.9665 2.75841 13.9665 3.33341V17.5001C13.9665 18.0584 13.6581 18.5584 13.1581 18.8084C12.6664 19.0584 12.0748 19.0001 11.6331 18.6667L10.2081 17.6001C10.1248 17.5334 10.0081 17.5501 9.94146 17.6167L8.54146 19.0167C8.25813 19.2917 7.89146 19.4417 7.4998 19.4417ZM4.92477 16.3084C5.30811 16.3084 5.68311 16.4501 5.96644 16.7417L7.3498 18.1334C7.3998 18.1834 7.46646 18.1917 7.4998 18.1917C7.53313 18.1917 7.59979 18.1834 7.64979 18.1334L9.04978 16.7334C9.56645 16.2167 10.3832 16.1667 10.9581 16.6084L12.3748 17.6667C12.4664 17.7334 12.5498 17.7084 12.5915 17.6834C12.6331 17.6584 12.7081 17.6084 12.7081 17.5001V3.33341C12.7081 2.95841 12.7998 2.60008 12.9581 2.29175H4.9998C3.1498 2.29175 2.29146 3.15008 2.29146 5.00008V17.5001C2.29146 17.6167 2.36648 17.6667 2.40814 17.6917C2.45814 17.7167 2.54148 17.7334 2.62482 17.6667L4.04978 16.6001C4.30812 16.4084 4.61644 16.3084 4.92477 16.3084Z" fill="#777777" style="fill:#777777;fill:color(display-p3 0.4667 0.4667 0.4667);fill-opacity:1;"/>
<path d="M10 8.125H5C4.65833 8.125 4.375 7.84167 4.375 7.5C4.375 7.15833 4.65833 6.875 5 6.875H10C10.3417 6.875 10.625 7.15833 10.625 7.5C10.625 7.84167 10.3417 8.125 10 8.125Z" fill="#777777" style="fill:#777777;fill:color(display-p3 0.4667 0.4667 0.4667);fill-opacity:1;"/>
<path d="M9.375 11.4583H5.625C5.28333 11.4583 5 11.1749 5 10.8333C5 10.4916 5.28333 10.2083 5.625 10.2083H9.375C9.71667 10.2083 10 10.4916 10 10.8333C10 11.1749 9.71667 11.4583 9.375 11.4583Z" fill="#777777" style="fill:#777777;fill:color(display-p3 0.4667 0.4667 0.4667);fill-opacity:1;"/>
</svg>
