<svg width="10" height="7" viewBox="0 0 10 7" fill="none" xmlns="http://www.w3.org/2000/svg">
<mask id="path-1-inside-1_39_9863" fill="white">
<path d="M9.77704 -0.00585938L3.13239 6.63879L0.112091 3.6185"/>
</mask>
<path d="M10.1187 0.335848C10.3075 0.147128 10.3075 -0.158847 10.1187 -0.347567C9.93003 -0.536287 9.62405 -0.536287 9.43533 -0.347567L10.1187 0.335848ZM3.13239 6.63879L2.79068 6.9805C2.9794 7.16922 3.28538 7.16922 3.4741 6.9805L3.13239 6.63879ZM0.453799 3.27679C0.265079 3.08807 -0.0408966 3.08807 -0.229616 3.27679C-0.418336 3.46551 -0.418336 3.77148 -0.229616 3.9602L0.453799 3.27679ZM9.43533 -0.347567L2.79068 6.29708L3.4741 6.9805L10.1187 0.335848L9.43533 -0.347567ZM3.4741 6.29708L0.453799 3.27679L-0.229616 3.9602L2.79068 6.9805L3.4741 6.29708Z" fill="#33C576" style="fill:#33C576;fill:color(display-p3 0.1982 0.7728 0.4625);fill-opacity:1;" mask="url(#path-1-inside-1_39_9863)"/>
</svg>
